<?xml version="1.0" standalone="no"?>
<svg viewBox="0 0 200 200" xmlns="http://www.w3.org/2000/svg">
  <path fill="#8B72B6" d="M46.4,-72C59.4,-63.8,68.9,-49.8,70.4,-35.4C71.9,-21,65.5,-6.2,58.9,5.3C52.3,16.8,45.5,25.2,39.4,36.6C33.3,48,27.9,62.4,17.9,69.1C7.9,75.8,-6.9,74.7,-19.6,69.6C-32.4,64.6,-43.2,55.7,-54.9,45.7C-66.7,35.6,-79.3,24.4,-81.2,11.6C-83.1,-1.2,-74.3,-15.6,-67.4,-30.8C-60.4,-46,-55.3,-62,-44.4,-71.2C-33.5,-80.4,-16.7,-82.8,0,-82.7C16.7,-82.7,33.3,-80.2,46.4,-72Z" transform="translate(100 100)" />
</svg>
