<?xml version="1.0" standalone="no"?>
<svg viewBox="0 0 200 200" xmlns="http://www.w3.org/2000/svg">
  <path fill="#8B72B6" d="M42.6,-59.7C57.7,-56.7,74,-48.9,82.3,-36C90.7,-23.1,91.2,-4.9,88.7,12.7C86.1,30.4,80.5,47.7,68.3,56.1C56.2,64.5,37.4,64.1,21.3,65.8C5.1,67.5,-8.4,71.2,-23.9,71.3C-39.3,71.4,-56.6,67.7,-66.4,57.1C-76.1,46.6,-78.2,29.1,-79,12.4C-79.7,-4.3,-79.1,-20.1,-71.8,-31.4C-64.5,-42.7,-50.4,-49.6,-37.3,-53.5C-24.2,-57.4,-12.1,-58.3,0.9,-59.6C13.8,-61,27.6,-62.7,42.6,-59.7Z" transform="translate(100 100)" />
</svg>
