<?xml version="1.0" standalone="no"?>
<svg viewBox="0 0 200 200" xmlns="http://www.w3.org/2000/svg">
  <path fill="#8B72B6" d="M42.8,-62.1C56.6,-57.7,69.9,-47.8,77.6,-34.4C85.2,-21,87.4,-4.1,83.6,11C79.9,26.1,70.3,39.4,59.5,51C48.6,62.5,36.3,72.4,22.3,76.8C8.3,81.3,-7.5,80.4,-21.4,75.3C-35.3,70.1,-47.2,60.7,-57,49.4C-66.8,38.1,-74.5,25,-78.8,9.9C-83.1,-5.1,-84.1,-22,-76.6,-33.5C-69.1,-45.1,-53,-51.3,-38.9,-55.6C-24.7,-59.8,-12.3,-62,1.1,-63.7C14.5,-65.4,28.9,-66.4,42.8,-62.1Z" transform="translate(100 100)" />
</svg>
